<svg width="147" height="112" viewBox="0 0 147 112" fill="none" xmlns="http://www.w3.org/2000/svg">
<g clip-path="url(#clip0_228_10)">
<path d="M145.25 35C144.786 35 144.341 35.1844 144.013 35.5126C143.684 35.8408 143.5 36.2859 143.5 36.75V106.75C143.5 107.214 143.316 107.659 142.987 107.987C142.659 108.316 142.214 108.5 141.75 108.5H5.25C4.78587 108.5 4.34075 108.316 4.01256 107.987C3.68437 107.659 3.5 107.214 3.5 106.75V36.75C3.5 36.2859 3.31563 35.8408 2.98744 35.5126C2.65925 35.1844 2.21413 35 1.75 35C1.28587 35 0.840752 35.1844 0.512563 35.5126C0.184374 35.8408 0 36.2859 0 36.75L0 106.75C0 109.645 2.3555 112 5.25 112H141.75C144.645 112 147 109.645 147 106.75V36.75C147 36.2859 146.816 35.8408 146.487 35.5126C146.159 35.1844 145.714 35 145.25 35ZM141.75 0H5.25C2.3555 0 0 2.3555 0 5.25V26.25C0 26.7141 0.184374 27.1592 0.512563 27.4874C0.840752 27.8156 1.28587 28 1.75 28H145.25C145.714 28 146.159 27.8156 146.487 27.4874C146.816 27.1592 147 26.7141 147 26.25V5.25C147 2.3555 144.645 0 141.75 0ZM143.5 24.5H3.5V5.25C3.5 4.78587 3.68437 4.34075 4.01256 4.01256C4.34075 3.68437 4.78587 3.5 5.25 3.5H141.75C142.214 3.5 142.659 3.68437 142.987 4.01256C143.316 4.34075 143.5 4.78587 143.5 5.25V24.5Z" fill="black"/>
<path d="M61.25 98C61.7141 98 62.1592 97.8156 62.4874 97.4874C62.8156 97.1592 63 96.7141 63 96.25V40.25C63 39.7859 62.8156 39.3408 62.4874 39.0126C62.1592 38.6844 61.7141 38.5 61.25 38.5H15.75C15.2859 38.5 14.8408 38.6844 14.5126 39.0126C14.1844 39.3408 14 39.7859 14 40.25V96.25C14 96.7141 14.1844 97.1592 14.5126 97.4874C14.8408 97.8156 15.2859 98 15.75 98H61.25ZM17.5 42H59.5V94.5H17.5V42ZM78.75 52.5H131.25C131.714 52.5 132.159 52.3156 132.487 51.9874C132.816 51.6592 133 51.2141 133 50.75C133 50.2859 132.816 49.8408 132.487 49.5126C132.159 49.1844 131.714 49 131.25 49H78.75C78.2859 49 77.8408 49.1844 77.5126 49.5126C77.1844 49.8408 77 50.2859 77 50.75C77 51.2141 77.1844 51.6592 77.5126 51.9874C77.8408 52.3156 78.2859 52.5 78.75 52.5ZM78.75 70H131.25C131.714 70 132.159 69.8156 132.487 69.4874C132.816 69.1593 133 68.7141 133 68.25C133 67.7859 132.816 67.3407 132.487 67.0126C132.159 66.6844 131.714 66.5 131.25 66.5H78.75C78.2859 66.5 77.8408 66.6844 77.5126 67.0126C77.1844 67.3407 77 67.7859 77 68.25C77 68.7141 77.1844 69.1593 77.5126 69.4874C77.8408 69.8156 78.2859 70 78.75 70ZM78.75 87.5H131.25C131.714 87.5 132.159 87.3156 132.487 86.9874C132.816 86.6592 133 86.2141 133 85.75C133 85.2859 132.816 84.8408 132.487 84.5126C132.159 84.1844 131.714 84 131.25 84H78.75C78.2859 84 77.8408 84.1844 77.5126 84.5126C77.1844 84.8408 77 85.2859 77 85.75C77 86.2141 77.1844 86.6592 77.5126 86.9874C77.8408 87.3156 78.2859 87.5 78.75 87.5Z" fill="black"/>
<path d="M14 17.5C15.933 17.5 17.5 15.933 17.5 14C17.5 12.067 15.933 10.5 14 10.5C12.067 10.5 10.5 12.067 10.5 14C10.5 15.933 12.067 17.5 14 17.5Z" fill="black"/>
<path d="M28 17.5C29.933 17.5 31.5 15.933 31.5 14C31.5 12.067 29.933 10.5 28 10.5C26.067 10.5 24.5 12.067 24.5 14C24.5 15.933 26.067 17.5 28 17.5Z" fill="black"/>
<path d="M42 17.5C43.933 17.5 45.5 15.933 45.5 14C45.5 12.067 43.933 10.5 42 10.5C40.067 10.5 38.5 12.067 38.5 14C38.5 15.933 40.067 17.5 42 17.5Z" fill="black"/>
</g>
<defs>
<clipPath id="clip0_228_10">
<rect width="147" height="112" fill="white"/>
</clipPath>
</defs>
</svg>
