<svg width="147" height="157" viewBox="0 0 147 157" fill="none" xmlns="http://www.w3.org/2000/svg">
<g clip-path="url(#clip0_228_42)">
<path d="M2.77833 117.6C6.62483 124.264 15.2635 127.787 27.7536 127.787C33.369 127.787 39.5528 126.998 45.9963 125.641C52.1997 144.648 62.1026 156.8 73.5 156.8C84.8974 156.8 94.8003 144.648 101.004 125.641C107.452 126.993 113.631 127.787 119.246 127.787C131.732 127.787 140.37 124.264 144.217 117.6C149.195 108.971 144.79 94.472 129.683 78.4C144.79 62.328 149.195 47.8289 144.217 39.2C140.37 32.536 131.732 29.0129 119.242 29.0129C113.626 29.0129 107.442 29.8018 100.999 31.1591C94.8003 12.152 84.8974 0 73.5 0C62.1026 0 52.1997 12.152 45.9963 31.1591C39.5479 29.8018 33.3641 29.0129 27.7536 29.0129C15.2635 29.0129 6.62483 32.536 2.77833 39.2C-2.20007 47.8289 2.20503 62.328 17.3117 78.4C2.20503 94.472 -2.20497 108.971 2.77833 117.6ZM73.5 151.9C64.4889 151.9 56.2716 141.125 50.8277 124.563C58.5833 122.564 66.1652 119.944 73.5 116.728C80.8349 119.944 88.4168 122.564 96.1723 124.563C90.7284 141.125 82.5111 151.9 73.5 151.9ZM44.1 78.4C44.1 72.6964 44.4038 67.1447 44.9232 61.7743C49.4225 58.6355 54.0522 55.688 58.8 52.9396C63.5732 50.1948 68.4791 47.6879 73.5 45.4279C78.4441 47.6574 83.3784 50.1515 88.2 52.9396C92.9493 55.6856 97.5791 58.6332 102.077 61.7743C102.596 67.1447 102.9 72.6964 102.9 78.4C102.9 84.1036 102.596 89.6553 102.077 95.0257C97.5776 98.1645 92.9478 101.112 88.2 103.86C83.4269 106.605 78.5209 109.112 73.5 111.372C68.4773 109.116 63.5711 106.609 58.8 103.86C54.0508 101.114 49.4209 98.1668 44.9232 95.0257C44.3816 89.5003 44.1069 83.9519 44.1 78.4ZM39.6802 91.2527C34.3733 87.2923 29.3227 82.9994 24.5588 78.4C29.3227 73.8006 34.3733 69.5077 39.6802 65.5473C39.3911 69.7319 39.2 73.9998 39.2 78.4C39.2 82.8002 39.3911 87.0681 39.6802 91.2527ZM45.6729 55.3014C46.5028 49.0922 47.7536 42.9465 49.4165 36.9068C55.558 38.4896 61.5857 40.4852 67.4583 42.8799C63.7245 44.688 60.0005 46.5892 56.35 48.6962C52.7316 50.8005 49.1713 53.0031 45.6729 55.3014ZM79.5368 42.8799C85.4095 40.4852 91.4371 38.4896 97.5786 36.9068C99.1564 42.5418 100.421 48.7305 101.322 55.3014C97.8246 53.002 94.2642 50.7994 90.6451 48.6962C87.0151 46.6217 83.3098 44.6816 79.5368 42.8799ZM107.32 65.5473C112.629 69.505 117.68 73.798 122.441 78.4C117.677 82.9994 112.627 87.2923 107.32 91.2527C107.609 87.0681 107.8 82.8002 107.8 78.4C107.8 73.9998 107.609 69.7319 107.32 65.5473ZM101.327 101.499C100.497 107.708 99.2465 113.854 97.5835 119.893C91.442 118.31 85.4144 116.315 79.5417 113.92C83.3167 112.119 87.0237 110.179 90.6549 108.104C94.271 105.998 97.8298 103.796 101.327 101.499ZM56.35 108.104C60.0005 110.211 63.7245 112.117 67.4632 113.92C61.5906 116.315 55.5629 118.31 49.4214 119.893C47.7585 113.854 46.5077 107.708 45.6778 101.499C49.0588 103.709 52.5623 105.914 56.35 108.104ZM139.978 115.15C137.097 120.143 129.737 122.887 119.251 122.887C114.077 122.887 108.383 122.172 102.435 120.952C104.489 113.391 105.926 105.676 106.732 97.8824C114.307 92.5708 120.702 87.2592 126.038 82.0603C138.445 95.2021 144.295 107.668 139.978 115.15ZM119.246 33.9129C129.732 33.9129 137.097 36.6618 139.973 41.65C144.295 49.1323 138.44 61.5979 126.033 74.7397C120.697 69.5457 114.302 64.2292 106.727 58.9176C105.921 51.1242 104.484 43.4091 102.43 35.8484C108.378 34.6283 114.077 33.9129 119.246 33.9129ZM73.5 4.9C82.5111 4.9 90.7284 15.6751 96.1723 32.2371C88.8076 34.104 81.1489 36.7451 73.5 40.0722C66.1652 36.8561 58.5833 34.2359 50.8277 32.2371C56.2716 15.6751 64.4889 4.9 73.5 4.9ZM7.02173 41.65C9.90293 36.6569 17.2627 33.9129 27.7487 33.9129C32.9231 33.9129 38.6169 34.6283 44.5655 35.8484C42.5109 43.4091 41.0737 51.1242 40.2682 58.9176C32.6928 64.2292 26.2983 69.5408 20.9622 74.7397C8.55543 61.5979 2.70483 49.1323 7.02173 41.65ZM20.9622 82.0603C26.2983 87.2543 32.6928 92.5708 40.2682 97.8824C41.1698 106.212 42.6251 113.974 44.5655 120.952C38.6218 122.172 32.928 122.887 27.7536 122.887C17.2676 122.887 9.89803 120.138 7.02173 115.15C2.70483 107.668 8.55543 95.2021 20.9622 82.0603Z" fill="black"/>
<path d="M73.5 90.6499C80.2522 90.6499 85.75 85.157 85.75 78.3999C85.75 71.6428 80.2522 66.1499 73.5 66.1499C66.7478 66.1499 61.25 71.6428 61.25 78.3999C61.25 85.157 66.7478 90.6499 73.5 90.6499ZM73.5 71.0499C77.5523 71.0499 80.85 74.3476 80.85 78.3999C80.85 82.4522 77.5523 85.7499 73.5 85.7499C69.4477 85.7499 66.15 82.4522 66.15 78.3999C66.15 74.3476 69.4477 71.0499 73.5 71.0499Z" fill="black"/>
</g>
<defs>
<clipPath id="clip0_228_42">
<rect width="147" height="156.8" fill="white"/>
</clipPath>
</defs>
</svg>
