<svg width="147" height="112" viewBox="0 0 147 112" fill="none" xmlns="http://www.w3.org/2000/svg">
<g clip-path="url(#clip0_228_17)">
<path d="M12.25 91C12.7141 91 13.1592 90.8156 13.4874 90.4874C13.8156 90.1592 14 89.7141 14 89.25V7C14 4.907 15.407 3.5 17.5 3.5H129.5C131.495 3.5 133 5.138 133 7.3115V89.25C133 89.7141 133.184 90.1592 133.513 90.4874C133.841 90.8156 134.286 91 134.75 91C135.214 91 135.659 90.8156 135.987 90.4874C136.316 90.1592 136.5 89.7141 136.5 89.25V7.3115C136.5 3.2095 133.427 0 129.5 0H17.5C13.4435 0 10.5 2.9435 10.5 7V89.25C10.5 89.7141 10.6844 90.1592 11.0126 90.4874C11.3408 90.8156 11.7859 91 12.25 91Z" fill="black"/>
<path d="M22.75 10.5C22.2859 10.5 21.8408 10.6844 21.5126 11.0126C21.1844 11.3408 21 11.7859 21 12.25V89.25C21 89.7141 21.1844 90.1592 21.5126 90.4874C21.8408 90.8156 22.2859 91 22.75 91H124.25C124.714 91 125.159 90.8156 125.487 90.4874C125.816 90.1592 126 89.7141 126 89.25V12.25C126 11.7859 125.816 11.3408 125.487 11.0126C125.159 10.6844 124.714 10.5 124.25 10.5H22.75ZM122.5 87.5H24.5V14H122.5V87.5ZM145.25 98H1.75C1.28587 98 0.840752 98.1844 0.512563 98.5126C0.184374 98.8408 0 99.2859 0 99.75L0 103.862C0 108.055 4.928 112 8.75 112H138.25C142.258 112 147 107.257 147 103.25V99.75C147 99.2859 146.816 98.8408 146.487 98.5126C146.159 98.1844 145.714 98 145.25 98ZM143.5 103.25C143.5 105.312 140.311 108.5 138.25 108.5H8.75C6.5415 108.5 3.5 105.812 3.5 103.862V101.5H143.5V103.25Z" fill="black"/>
</g>
<defs>
<clipPath id="clip0_228_17">
<rect width="147" height="112" fill="white"/>
</clipPath>
</defs>
</svg>
