<svg width="111" height="85" viewBox="0 0 111 85" fill="none" xmlns="http://www.w3.org/2000/svg">
<g clip-path="url(#clip0_230_58)">
<path d="M9.75743 57.6938C10.2226 57.8053 10.8542 58.3817 11.0366 58.9077L11.9616 61.1495C12.1704 61.5798 12.1307 62.4325 11.8823 62.8416L8.19021 68.9084C7.4 70.21 7.56386 72.0534 8.62629 73.2488L11.7528 76.3884C12.8416 77.3606 14.763 77.5359 16.0157 76.7736L22.052 73.0628C22.4299 72.8291 23.2413 72.7467 23.8095 73.015L26.0374 73.9394C26.4867 74.0961 27.0602 74.7283 27.1712 75.1958L28.8283 82.1127C29.1798 83.5789 30.5726 84.7849 32.0684 84.923C32.0684 84.923 32.9855 85.008 34.3598 85.008C35.7341 85.008 36.6511 84.923 36.6538 84.923C37.411 84.8332 38.1241 84.5175 38.7011 84.0166C39.2782 83.5157 39.6927 82.8526 39.8913 82.1127L41.551 75.1958C41.662 74.7309 42.2329 74.0961 42.7561 73.9128L44.9867 72.9831C45.3805 72.7892 46.2923 72.8291 46.6702 73.0628L52.7065 76.7736C53.2377 77.1003 53.872 77.273 54.5459 77.273C55.4577 77.273 56.3404 76.9516 57.0249 76.338L60.1488 73.1956C60.644 72.6081 60.9466 71.8812 61.0152 71.1143C61.0838 70.3474 60.915 69.5779 60.532 68.9111L56.8399 62.8442C56.5915 62.4352 56.5519 61.5825 56.7924 61.0778L57.7121 58.8386C57.868 58.387 58.497 57.8106 58.9621 57.6991L65.8441 56.0336C66.5803 55.8332 67.24 55.416 67.7383 54.8356C68.2366 54.2553 68.5508 53.5383 68.6403 52.777C68.6403 52.777 68.7249 51.8553 68.7249 50.4741C68.7249 49.0928 68.6403 48.1711 68.6403 48.1684C68.5504 47.4073 68.2362 46.6905 67.7379 46.1102C67.2397 45.5299 66.5802 45.1126 65.8441 44.9119L58.9648 43.2491C58.4996 43.1375 57.868 42.5611 57.6856 42.0352L56.7606 39.7933C56.5519 39.363 56.5915 38.5103 56.8399 38.1013L60.532 32.0344C61.3222 30.7328 61.1584 28.8894 60.0959 27.6941L56.9694 24.5544C55.8779 23.5795 53.9539 23.4042 52.7065 24.1692L46.6702 27.88C46.2923 28.1111 45.4783 28.1988 44.9127 27.9278L42.6848 27.0034C42.2355 26.8467 41.6646 26.2145 41.5536 25.747L39.8939 18.8302C39.6945 18.0902 39.2794 17.4272 38.702 16.9264C38.1246 16.4255 37.4112 16.1098 36.6538 16.0198C36.6485 16.0225 35.7314 15.9375 34.3571 15.9375C32.9829 15.9375 32.0658 16.0225 32.0631 16.0225C31.3058 16.1128 30.5927 16.4287 30.0153 16.9294C29.4379 17.4302 29.0227 18.0931 28.823 18.8328L27.1686 25.7444C27.0576 26.2119 26.4841 26.8467 25.9608 27.03L23.7302 27.9597C23.3338 28.1536 22.4246 28.1111 22.0467 27.88L16.0131 24.1692C14.763 23.4042 12.8813 23.537 11.6946 24.6048L8.57079 27.7472C8.07555 28.3347 7.77294 29.0616 7.70435 29.8285C7.63576 30.5954 7.80452 31.3649 8.18757 32.0317L11.8796 38.0986C12.1281 38.5077 12.1677 39.3603 11.9272 39.865L11.0075 42.1042C10.8516 42.5558 10.2226 43.1322 9.75743 43.2438L2.87543 44.9092C2.13923 45.1096 1.47954 45.5268 0.981235 46.1072C0.482929 46.6876 0.168806 47.4045 0.0792857 48.1658C0.0845714 48.1658 0 49.0875 0 50.4688C0 51.85 0.0845714 52.7717 0.0845714 52.7744C0.174436 53.5355 0.488681 54.2523 0.986935 54.8326C1.48519 55.4129 2.14469 55.8302 2.88071 56.0309L9.75743 57.6938ZM2.64286 50.4688C2.64286 49.2522 2.71421 48.4314 2.71686 48.4048C2.75896 48.1982 2.85294 48.0057 2.98985 47.8458C3.12677 47.6859 3.30208 47.5638 3.49914 47.4911L10.3811 45.8256C11.7158 45.5016 13.061 44.2744 13.4786 43.0445L14.3349 40.9541C14.9374 39.7136 14.8529 37.8914 14.1366 36.712L10.4446 30.6478C10.2675 30.353 10.3177 29.7686 10.4921 29.5694L13.5076 26.5359C13.7481 26.3208 14.3613 26.2677 14.6361 26.435L20.6724 30.1458C21.8168 30.8497 23.7778 30.8975 24.8164 30.3795L26.899 29.5136C28.1966 29.0647 29.4176 27.7127 29.7401 26.3686L31.3945 19.4544C31.4662 19.2557 31.5875 19.0788 31.7466 18.9407C31.9058 18.8026 32.0976 18.7078 32.3036 18.6655C32.3301 18.6655 33.1467 18.5938 34.3571 18.5938C35.5676 18.5938 36.3842 18.6655 36.4106 18.6681C36.6163 18.7104 36.8078 18.8049 36.9669 18.9425C37.126 19.0801 37.2475 19.2563 37.3198 19.4544L38.9769 26.3686C39.2993 27.71 40.5176 29.0647 41.7439 29.4844L43.8239 30.345C45.0316 30.94 46.9028 30.847 48.0445 30.1458L54.0781 26.435C54.353 26.2677 55.0031 26.3553 55.1511 26.4828L58.1693 29.5136C58.3966 29.7713 58.4468 30.353 58.2697 30.6478L54.5776 36.7147C53.8614 37.8914 53.7769 39.7163 54.3451 40.8797L55.2066 42.9728C55.6533 44.277 56.9985 45.5042 58.3358 45.8283L65.2151 47.4911C65.4128 47.5632 65.5888 47.685 65.7262 47.845C65.8637 48.005 65.958 48.1978 66.0001 48.4048C66.0001 48.4314 66.0714 49.2522 66.0714 50.4688C66.0714 51.6853 66.0001 52.5061 65.9974 52.5327C65.9553 52.7393 65.8614 52.9318 65.7244 53.0917C65.5875 53.2516 65.4122 53.3737 65.2151 53.4464L58.3331 55.1119C56.9985 55.4359 55.6533 56.6631 55.2357 57.893L54.3794 59.9834C53.7769 61.2239 53.8614 63.0461 54.5776 64.2255L58.2697 70.2897C58.4468 70.5845 58.3966 71.1689 58.2221 71.3681L55.2066 74.4016C55.0156 74.5451 54.7817 74.6191 54.5433 74.6114C54.3823 74.6167 54.2227 74.5791 54.0808 74.5025L48.0445 70.7917C46.9028 70.0905 44.9418 70.04 43.9005 70.558L41.8179 71.4239C40.5203 71.8728 39.2993 73.2275 38.9795 74.5689L37.3224 81.4831C37.2507 81.6818 37.1295 81.8587 36.9703 81.9968C36.8111 82.1349 36.6193 82.2297 36.4133 82.272C36.3842 82.272 35.5676 82.3438 34.3571 82.3438C33.1467 82.3438 32.3301 82.272 32.3036 82.2694C32.098 82.2271 31.9065 82.1326 31.7474 81.995C31.5883 81.8574 31.4668 81.6812 31.3945 81.4831L29.7374 74.5663C29.415 73.2248 28.194 71.8728 26.9704 71.4531L24.8904 70.5925C24.299 70.3161 23.6529 70.1781 23.0008 70.1888C22.1313 70.1888 21.3041 70.4039 20.6698 70.7944L14.6361 74.5052C14.3613 74.6725 13.7085 74.5822 13.5631 74.4573L10.545 71.4239C10.3177 71.1663 10.2675 70.5845 10.4446 70.2897L14.1366 64.2228C14.8529 63.0461 14.9374 61.2213 14.3692 60.0578L13.5076 57.9647C13.061 56.6605 11.7158 55.4333 10.3785 55.1092L3.49914 53.4464C3.30145 53.3743 3.12547 53.2525 2.98804 53.0925C2.85061 52.9325 2.75633 52.7397 2.71421 52.5327C2.71421 52.5061 2.64286 51.6853 2.64286 50.4688Z" fill="#FCA311"/>
<path d="M34.3571 65.0781C42.3729 65.0781 48.8928 58.5252 48.8928 50.4688C48.8928 42.4124 42.3729 35.8594 34.3571 35.8594C26.3413 35.8594 19.8214 42.4124 19.8214 50.4688C19.8214 58.5252 26.3413 65.0781 34.3571 65.0781ZM34.3571 38.5156C40.9141 38.5156 46.25 43.8786 46.25 50.4688C46.25 57.0589 40.9141 62.4219 34.3571 62.4219C27.8002 62.4219 22.4643 57.0589 22.4643 50.4688C22.4643 43.8786 27.8002 38.5156 34.3571 38.5156ZM72.6178 14.1153C72.4403 14.3155 72.1976 14.4455 71.9333 14.4819L67.0149 14.4341C66.4079 14.4503 65.8194 14.6472 65.324 15C64.8285 15.3528 64.4485 15.8455 64.232 16.4156C64.232 16.4156 64.0153 17.0345 63.7774 17.9828C63.5395 18.9311 63.4391 19.5792 63.4391 19.5792C63.2541 20.7772 63.9175 22.1027 64.9825 22.6631L69.3195 24.9475C69.5519 25.1245 69.7088 25.3838 69.7582 25.6727L70.004 27.3594C70.0196 27.6259 69.9409 27.8893 69.782 28.1031L66.2881 31.5456C65.4133 32.4063 65.1834 33.8778 65.786 35.0333L67.369 37.6895C68.0377 38.6777 69.486 39.1824 70.6224 38.8264L75.443 37.3442C75.7046 37.3442 75.9663 37.4452 76.1143 37.5647L77.4753 38.5741C77.6734 38.7533 77.8025 38.9968 77.84 39.262L77.7925 44.1814C77.7819 45.3927 78.6276 46.6066 79.764 47.005C79.764 47.005 80.3798 47.2228 81.3233 47.4619C82.2668 47.7009 82.9117 47.8019 82.9117 47.8019C82.9804 47.8125 83.2553 47.8338 83.324 47.8338C83.8659 47.827 84.3965 47.6771 84.8627 47.3993C85.3289 47.1214 85.7142 46.7253 85.98 46.2506L88.2529 41.8917C88.429 41.6581 88.687 41.5005 88.9744 41.4508L90.7266 41.1958C90.9909 41.1958 91.3028 41.3339 91.39 41.4242L94.8151 44.9358C95.6476 45.7911 97.051 46.0966 98.2852 45.4405L100.925 43.8494C101.935 43.1588 102.424 41.7509 102.059 40.5795L100.6 35.8859C100.561 35.5942 100.635 35.2986 100.806 35.0599L101.811 33.6919C101.988 33.4917 102.231 33.3617 102.495 33.3253L107.414 33.3731C108.021 33.357 108.609 33.16 109.105 32.8072C109.6 32.4544 109.98 31.9617 110.197 31.3916C110.197 31.3916 110.413 30.7727 110.651 29.8244C110.889 28.8761 110.989 28.228 110.989 28.228C111.068 27.6178 110.963 26.998 110.688 26.4484C110.413 25.8988 109.98 25.4445 109.446 25.1441L105.109 22.8597C104.877 22.6827 104.72 22.4234 104.67 22.1345L104.427 20.4531C104.412 20.1867 104.49 19.9232 104.649 19.7094L108.143 16.2669C109.018 15.4063 109.248 13.9347 108.645 12.7792L107.062 10.123C106.393 9.13751 104.948 8.62751 103.809 8.98345L98.9855 10.4656C98.7442 10.4653 98.5092 10.3881 98.3143 10.2452L96.9532 9.23579C96.7551 9.05655 96.626 8.81304 96.5885 8.54782L96.636 3.62845C96.6258 3.01365 96.4326 2.41604 96.0811 1.91273C95.7297 1.40943 95.2363 1.02353 94.6645 0.804853C94.6645 0.804853 94.0487 0.587041 93.1052 0.347979C92.1617 0.108916 91.5168 0.00797852 91.5168 0.00797852C91.3797 -0.00572336 91.2422 -0.015467 91.1045 -0.0212402C90.5626 -0.0144556 90.032 0.135371 89.5658 0.413225C89.0996 0.691079 88.7143 1.0872 88.4485 1.56188L86.1756 5.92079C85.9995 6.15443 85.7416 6.31206 85.4541 6.36173L83.7019 6.61407C83.4626 6.60886 83.2308 6.52904 83.0385 6.38563L79.6134 2.87407C79.1657 2.42639 78.5865 2.13555 77.9615 2.04465C77.3364 1.95375 76.6989 2.06762 76.1433 2.36938L73.5005 3.95782C72.4909 4.64845 72.002 6.05626 72.3667 7.22767L73.8255 11.9213C73.8645 12.213 73.7908 12.5086 73.6194 12.7474L72.6178 14.1153ZM74.7849 15.6347L75.6914 14.3969C76.3997 13.5549 76.6745 12.1816 76.3468 11.1324L74.8906 6.44142C74.8774 6.36704 74.9356 6.1997 74.9223 6.19704L77.4278 4.68829L77.7264 4.73345L81.1542 8.24501C81.7621 8.86657 82.7637 9.27032 83.7045 9.27032C83.8856 9.27319 84.0663 9.25626 84.2437 9.21985L85.7633 8.99407C86.3341 8.92448 86.8807 8.7215 87.3594 8.40138C87.8381 8.08126 88.2355 7.6529 88.5198 7.15063L90.79 2.79438C90.8718 2.70226 90.985 2.64442 91.1072 2.63235C91.1363 2.63501 91.6754 2.72532 92.463 2.92188C93.2479 3.1211 93.7659 3.29907 93.7897 3.3097C93.8716 3.34423 93.9905 3.51688 93.9958 3.60188L93.9483 8.52126C93.9377 9.62095 94.5958 10.8561 95.4468 11.4139L96.6757 12.325C97.4923 13.0183 98.893 13.3105 99.9238 12.9838L104.612 11.5175C104.723 11.5175 104.847 11.5866 104.832 11.552L106.333 14.0702C106.362 14.1392 106.333 14.3145 106.288 14.3703L102.794 17.8155C102.014 18.5884 101.61 19.9272 101.824 20.9206L102.046 22.448C102.141 23.5424 102.913 24.7085 103.883 25.2184L108.217 27.5002C108.308 27.5829 108.365 27.6964 108.378 27.8189C108.301 28.2769 108.205 28.7315 108.09 29.1816C107.981 29.6314 107.852 30.0763 107.704 30.515C107.67 30.5974 107.498 30.7169 107.414 30.7222L102.493 30.6744C101.406 30.6744 100.191 31.3358 99.641 32.1805L98.7371 33.4156C98.3803 33.8697 98.135 34.402 98.0211 34.9692C97.9073 35.5364 97.928 36.1225 98.0817 36.6802L99.5379 41.3711C99.5511 41.4428 99.493 41.6128 99.5062 41.6155L97.0008 43.1242L96.7021 43.0791L93.2743 39.5675C92.6665 38.9459 91.6648 38.5422 90.724 38.5422C90.543 38.5393 90.3622 38.5563 90.1848 38.5927L88.6652 38.8185C88.0944 38.888 87.5478 39.091 87.0691 39.4111C86.5904 39.7313 86.193 40.1596 85.9087 40.6619L83.6385 45.0181C83.5568 45.1103 83.4435 45.1681 83.3213 45.1802C82.8657 45.1023 82.4134 45.0057 81.9655 44.8906C81.518 44.7805 81.0753 44.6511 80.6388 44.5028C80.5569 44.4683 80.438 44.2956 80.4327 44.2106L80.4803 39.2913C80.4908 38.1916 79.8328 36.9564 78.9818 36.3986L77.7528 35.4875C77.3006 35.1287 76.7706 34.882 76.2058 34.7676C75.641 34.6531 75.0573 34.6741 74.5021 34.8288L69.8137 36.295C69.7001 36.295 69.5758 36.2339 69.5943 36.2605L68.0932 33.7424C68.0641 33.6733 68.0932 33.498 68.1381 33.4422L71.632 29.997C72.4116 29.2241 72.816 27.8853 72.6019 26.8919L72.3799 25.3672C72.3106 24.7932 72.1083 24.2436 71.7893 23.7624C71.4703 23.2813 71.0435 22.882 70.5431 22.5967L66.2088 20.315C66.118 20.2322 66.0606 20.1188 66.0476 19.9963C66.0503 19.967 66.1401 19.4252 66.3357 18.6336C66.5339 17.8447 66.711 17.3241 66.7215 17.3002C66.7559 17.2178 66.9277 17.0983 67.0123 17.093L71.9333 17.1408C73.0195 17.1408 74.2352 16.4794 74.7849 15.6347Z" fill="#FCA311"/>
<path d="M87.2143 31.875C91.5856 31.875 95.1428 28.2997 95.1428 23.9062C95.1428 19.5128 91.5856 15.9375 87.2143 15.9375C82.843 15.9375 79.2857 19.5128 79.2857 23.9062C79.2857 28.2997 82.843 31.875 87.2143 31.875ZM87.2143 18.5938C90.1293 18.5938 92.5 20.9764 92.5 23.9062C92.5 26.8361 90.1293 29.2188 87.2143 29.2188C84.2992 29.2188 81.9286 26.8361 81.9286 23.9062C81.9286 20.9764 84.2992 18.5938 87.2143 18.5938Z" fill="#FCA311"/>
</g>
<defs>
<clipPath id="clip0_230_58">
<rect width="111" height="85" fill="white"/>
</clipPath>
</defs>
</svg>
