<svg width="64" height="93" viewBox="0 0 64 93" fill="none" xmlns="http://www.w3.org/2000/svg">
<g clip-path="url(#clip0_231_69)">
<path d="M32 0C16.6109 0 0 12.2237 0 31.9688C0 41.7134 3.88073 49.9119 11.3338 56.1255C11.4112 56.2223 11.5012 56.3083 11.6015 56.3812C17.1316 62.3739 17.4109 63.5132 17.4487 66.1492C17.4662 67.1925 17.4575 67.5006 17.4487 67.6691L17.4371 68.2765C17.3935 69.5902 17.3265 71.7902 20.0524 72.6214L43.5985 77.7974C43.7852 77.8382 43.978 77.842 44.1661 77.8083C44.3541 77.7747 44.5337 77.7044 44.6946 77.6015C44.8554 77.4985 44.9944 77.3649 45.1036 77.2083C45.2128 77.0517 45.29 76.8751 45.3309 76.6887C45.3718 76.5022 45.3755 76.3096 45.3419 76.1217C45.3082 75.9338 45.2378 75.7544 45.1348 75.5937C45.0317 75.433 44.898 75.2942 44.7412 75.1851C44.5845 75.076 44.4077 74.9988 44.2211 74.958L20.7884 69.811C20.3375 69.6744 20.2996 69.6628 20.3404 68.3637L20.3491 67.8086C20.3491 67.8086 20.3782 67.5819 20.3549 66.1056C20.2996 62.4175 19.4967 60.636 13.6378 54.3091C13.5261 54.1713 13.39 54.055 13.2364 53.9662C6.38255 48.1449 2.90909 40.7456 2.90909 31.9688C2.90909 14.0168 18.0073 2.90625 32 2.90625C46.3011 2.90625 61.0909 13.7785 61.0909 31.9688C61.0909 43.5298 55.4822 49.9032 50.8567 53.9138C50.6954 53.9914 50.5502 54.0989 50.4291 54.2306C44.5033 60.636 43.7004 62.4175 43.6451 66.1056V66.4049L43.6422 66.5066C43.6335 66.7275 43.6015 66.8496 43.6044 66.8961C43.4909 66.879 43.3774 66.8615 43.264 66.8438L31.0604 63.9753C30.8743 63.9316 30.6815 63.9249 30.4929 63.9557C30.3042 63.9864 30.1235 64.054 29.961 64.1545C29.7985 64.2551 29.6575 64.3866 29.5459 64.5416C29.4342 64.6966 29.3543 64.872 29.3105 65.0579C29.2668 65.2437 29.2601 65.4364 29.2909 65.6248C29.3217 65.8133 29.3893 65.9938 29.49 66.1561C29.5906 66.3185 29.7222 66.4594 29.8774 66.5709C30.0325 66.6824 30.2081 66.7623 30.3942 66.806L42.4495 69.6308C42.6095 69.689 44.0582 70.1598 45.28 69.3024C45.8124 68.9275 46.432 68.1922 46.5425 66.7856L46.5513 66.649L46.5571 66.3613L46.5542 66.2858L46.5571 66.1521C46.5949 63.5306 46.8684 62.3914 52.3898 56.3987C52.416 56.3783 52.4451 56.358 52.4684 56.3348C60.2269 49.8218 64 41.85 64 31.9688C64 11.9592 47.7295 0 32 0ZM43.6364 85.7344C43.9664 85.7349 44.2868 85.6229 44.5444 85.4168C44.8021 85.2107 44.9815 84.9228 45.0531 84.6009C45.0957 84.4149 45.101 84.2222 45.0689 84.0341C45.0368 83.8459 44.9678 83.666 44.8659 83.5045C44.764 83.343 44.6312 83.2033 44.4751 83.0932C44.3191 82.9831 44.1428 82.9049 43.9564 82.863L20.6836 77.5911C20.3112 77.5157 19.9241 77.589 19.6051 77.7951C19.286 78.0012 19.0604 78.3239 18.9764 78.6941C18.8924 79.0642 18.9567 79.4526 19.1556 79.776C19.3545 80.0994 19.6722 80.3322 20.0407 80.4247L43.3135 85.6966C43.4193 85.7217 43.5276 85.7344 43.6364 85.7344ZM22.1353 85.8913C21.9462 85.8413 21.7489 85.83 21.5553 85.858C21.3617 85.8859 21.1757 85.9526 21.0085 86.054C20.8413 86.1554 20.6963 86.2895 20.5821 86.4482C20.468 86.6069 20.387 86.787 20.3442 86.9777C20.3013 87.1684 20.2974 87.3657 20.3326 87.5579C20.3679 87.7502 20.4416 87.9333 20.5493 88.0964C20.657 88.2596 20.7966 88.3993 20.9596 88.5073C21.1227 88.6153 21.3058 88.6893 21.4982 88.7249L40.4073 92.9622C40.5964 93.0122 40.7937 93.0235 40.9873 92.9956C41.1809 92.9676 41.3668 92.9009 41.534 92.7995C41.7013 92.6981 41.8463 92.564 41.9604 92.4053C42.0746 92.2466 42.1555 92.0665 42.1984 91.8759C42.2412 91.6852 42.2452 91.4878 42.2099 91.2956C42.1747 91.1034 42.101 90.9202 41.9933 90.7571C41.8855 90.594 41.746 90.4542 41.5829 90.3463C41.4199 90.2383 41.2367 90.1643 41.0444 90.1286L22.1353 85.8913Z" fill="#FCA311"/>
</g>
<defs>
<clipPath id="clip0_231_69">
<rect width="64" height="93" fill="white"/>
</clipPath>
</defs>
</svg>
