<svg width="99" height="75" viewBox="0 0 99 75" fill="none" xmlns="http://www.w3.org/2000/svg">
<path d="M3.53575 39.8438C3.22317 39.8438 2.9234 39.9672 2.70237 40.187C2.48135 40.4068 2.35718 40.7048 2.35718 41.0156V69.1406C2.35718 71.0789 3.94353 72.6562 5.89289 72.6562H29.4643C29.7769 72.6562 30.0767 72.5328 30.2977 72.313C30.5187 72.0932 30.6429 71.7952 30.6429 71.4844C30.6429 71.1736 30.5187 70.8755 30.2977 70.6557C30.0767 70.436 29.7769 70.3125 29.4643 70.3125H5.89289C5.58032 70.3125 5.28054 70.189 5.05952 69.9693C4.83849 69.7495 4.71432 69.4514 4.71432 69.1406V41.0156C4.71432 40.7048 4.59015 40.4068 4.36913 40.187C4.1481 39.9672 3.84833 39.8438 3.53575 39.8438ZM95.4643 39.8438C95.1517 39.8438 94.852 39.9672 94.6309 40.187C94.4099 40.4068 94.2858 40.7048 94.2858 41.0156V69.1406C94.2858 69.4514 94.1616 69.7495 93.9406 69.9693C93.7195 70.189 93.4198 70.3125 93.1072 70.3125H43.6072C43.2946 70.3125 42.9948 70.436 42.7738 70.6557C42.5528 70.8755 42.4286 71.1736 42.4286 71.4844C42.4286 71.7952 42.5528 72.0932 42.7738 72.313C42.9948 72.5328 43.2946 72.6562 43.6072 72.6562H93.1072C95.0565 72.6562 96.6429 71.0789 96.6429 69.1406V41.0156C96.6429 40.7048 96.5187 40.4068 96.2977 40.187C96.0767 39.9672 95.7769 39.8438 95.4643 39.8438ZM42.4286 3.51562C42.4286 3.82643 42.5528 4.1245 42.7738 4.34427C42.9948 4.56403 43.2946 4.6875 43.6072 4.6875H93.1072C93.4198 4.6875 93.7195 4.81097 93.9406 5.03073C94.1616 5.2505 94.2858 5.54857 94.2858 5.85938V26.8547C94.2858 27.1655 94.4099 27.4636 94.6309 27.6833C94.852 27.9031 95.1517 28.0266 95.4643 28.0266C95.7769 28.0266 96.0767 27.9031 96.2977 27.6833C96.5187 27.4636 96.6429 27.1655 96.6429 26.8547V5.85938C96.6429 3.92109 95.0565 2.34375 93.1072 2.34375H43.6072C43.2946 2.34375 42.9948 2.46721 42.7738 2.68698C42.5528 2.90675 42.4286 3.20482 42.4286 3.51562ZM5.89289 2.34375C3.94353 2.34375 2.35718 3.92109 2.35718 5.85938V26.8547C2.35718 27.1655 2.48135 27.4636 2.70237 27.6833C2.9234 27.9031 3.22317 28.0266 3.53575 28.0266C3.84833 28.0266 4.1481 27.9031 4.36913 27.6833C4.59015 27.4636 4.71432 27.1655 4.71432 26.8547V5.85938C4.71432 5.54857 4.83849 5.2505 5.05952 5.03073C5.28054 4.81097 5.58032 4.6875 5.89289 4.6875H29.4643C29.7769 4.6875 30.0767 4.56403 30.2977 4.34427C30.5187 4.1245 30.6429 3.82643 30.6429 3.51562C30.6429 3.20482 30.5187 2.90675 30.2977 2.68698C30.0767 2.46721 29.7769 2.34375 29.4643 2.34375H5.89289Z" fill="#FCA311"/>
<path d="M97.8214 32.7141H49.7357C50.6715 32.3016 51.48 31.8211 52.0551 31.2492C53.7657 29.5448 54.7264 27.2352 54.7264 24.8273C54.7264 22.4194 53.7657 20.1099 52.0551 18.4055C48.6043 14.9742 42.5889 14.9742 39.138 18.4055C38.5841 18.9563 38.1197 19.725 37.7143 20.6086V1.17188C37.7143 0.861074 37.5901 0.563003 37.3691 0.343234C37.1481 0.123465 36.8483 0 36.5357 0C36.2231 0 35.9234 0.123465 35.7023 0.343234C35.4813 0.563003 35.3571 0.861074 35.3571 1.17188V32.168C31.3429 30.5227 24.2762 27.143 22.8266 24.2297C22.3606 23.3001 22.0846 22.2879 22.0146 21.2515C21.9446 20.2152 22.082 19.1754 22.4188 18.1922C22.7507 17.2077 23.2754 16.2984 23.9628 15.5167C24.6502 14.7351 25.4866 14.0966 26.4236 13.6383C26.704 13.5006 26.9178 13.2578 27.0182 12.9633C27.1185 12.6688 27.0971 12.3468 26.9586 12.068C26.8202 11.7892 26.576 11.5765 26.2798 11.4767C25.9836 11.377 25.6597 11.3983 25.3794 11.5359C24.1639 12.1299 23.0791 12.9578 22.1877 13.9717C21.2964 14.9855 20.6162 16.1651 20.1866 17.4422C19.7497 18.7165 19.5714 20.0644 19.6621 21.4077C19.7527 22.751 20.1104 24.0631 20.7146 25.268C22.1406 28.132 26.9139 30.8719 30.7914 32.7141H1.17857C0.865995 32.7141 0.566221 32.8375 0.345196 33.0573C0.124171 33.2771 0 33.5751 0 33.8859C0 34.1967 0.124171 34.4948 0.345196 34.7146C0.566221 34.9343 0.865995 35.0578 1.17857 35.0578H23.2084C22.2962 35.4656 21.5066 35.9367 20.9432 36.4969C19.2326 38.2013 18.2719 40.5109 18.2719 42.9188C18.2719 45.3266 19.2326 47.6362 20.9432 49.3406C22.6686 51.0563 24.9621 52.0008 27.4018 52.0008C29.8414 52.0008 32.1349 51.0563 33.8604 49.3406C34.4449 48.7594 34.9352 47.9367 35.3571 46.9852V73.8281C35.3571 74.1389 35.4813 74.437 35.7023 74.6568C35.9234 74.8765 36.2231 75 36.5357 75C36.8483 75 37.1481 74.8765 37.3691 74.6568C37.5901 74.437 37.7143 74.1389 37.7143 73.8281V35.6133C41.7403 37.268 48.7292 40.6242 50.1718 43.5211C51.1146 45.4148 51.2584 47.557 50.5796 49.5586C50.2477 50.5431 49.7229 51.4524 49.0355 52.2341C48.3481 53.0157 47.5118 53.6541 46.5748 54.1125C46.4313 54.1777 46.3024 54.2709 46.1957 54.3866C46.0891 54.5023 46.0069 54.6381 45.9541 54.7859C45.9012 54.9338 45.8788 55.0906 45.8881 55.2473C45.8973 55.4039 45.9382 55.5571 46.0081 55.6978C46.078 55.8384 46.1757 55.9637 46.2952 56.0661C46.4148 56.1685 46.5538 56.2461 46.704 56.2941C46.8542 56.3421 47.0126 56.3596 47.1698 56.3456C47.327 56.3316 47.4797 56.2863 47.619 56.2125C48.8344 55.6185 49.9193 54.7906 50.8106 53.7768C51.702 52.7629 52.3822 51.5833 52.8118 50.3063C53.2487 49.0319 53.4269 47.6841 53.3363 46.3408C53.2457 44.9974 52.8879 43.6854 52.2838 42.4805C50.8648 39.6305 46.1293 36.9023 42.2612 35.0578H97.8214C98.134 35.0578 98.4338 34.9343 98.6548 34.7146C98.8758 34.4948 99 34.1967 99 33.8859C99 33.5751 98.8758 33.2771 98.6548 33.0573C98.4338 32.8375 98.134 32.7141 97.8214 32.7141ZM40.8045 20.0648C42.0844 18.7922 43.7863 18.0914 45.5966 18.0914C47.4069 18.0914 49.1087 18.7922 50.3886 20.0648C51.6579 21.3294 52.3708 23.0431 52.3708 24.8297C52.3708 26.6163 51.6579 28.3299 50.3886 29.5945C48.3756 31.5961 41.4551 32.4117 37.7379 32.6414C38.0019 28.2727 38.9683 21.8906 40.8045 20.0648ZM32.1939 47.6836C29.634 50.2289 25.1696 50.2289 22.6097 47.6836C21.3405 46.419 20.6276 44.7054 20.6276 42.9188C20.6276 41.1321 21.3405 39.4185 22.6097 38.1539C24.6227 36.1523 31.5433 35.3367 35.2605 35.107C34.9965 39.4758 34.0301 45.8578 32.1939 47.6836Z" fill="#FCA311"/>
</svg>
